<svg xmlns="http://www.w3.org/2000/svg" xmlns:xlink="http://www.w3.org/1999/xlink" width="512" height="512" viewBox="0 0 512 512">
  <defs>
    <clipPath id="clip-cl-logo-1x1">
      <rect width="512" height="512"/>
    </clipPath>
  </defs>
  <g id="cl-logo-1x1" clip-path="url(#clip-cl-logo-1x1)">
    <rect width="512" height="512" fill="#091451"/>
    <g id="Group_2" data-name="Group 2" transform="translate(-221.107 -247.525)">
      <path id="Path_1" data-name="Path 1" d="M329.137,351.627C302.649,357.039,274.47,368.9,274.47,368.9c13.956-19,42.273-42.289,42.273-42.289-7.792-14.64-14.692-36.314-14.692-36.314s32.754,1.8,58.388,10.117c0,0,43.552-23.868,88.688-24.6,0,0-32.907,18.991-46.875,36.68,3.705,1.947,30.012,9.822,50.5,21.894,0,0-37.045,1.042-71.035,5.7,0,0-11.97,16.882-22.086,55.3a242.837,242.837,0,0,1-30.5-43.764Z" transform="translate(80.269 0)" fill="#fff" fill-rule="evenodd"/>
      <path id="Path_2" data-name="Path 2" d="M372.157,354.1c-22.429-24.942-52.362-49.054-52.362-49.054,27.53.393,68.387,16.639,68.387,16.639,8-15.1,13.574-35.869,13.574-35.869s15.636,26.456,22.739,55.718c0,0,32.447,19.427,56.929,51.949,0,0-25.54-5.33-44.366-5.239-.047,4.193,6.907,38.709,5.4,62.444,0,0-20.836-33.851-40.373-62.051a295.831,295.831,0,0,0-64.43,9.586s18.491-21.351,34.5-44.122Z" transform="translate(213.228 29.341)" fill="#fff" fill-rule="evenodd"/>
      <path id="Path_3" data-name="Path 3" d="M391.379,393.765c16.544-27.892,34.363-66.035,34.363-66.035,5.46,25.509,5.959,58.054,5.959,58.054,16.4-3.458,45.463-17.394,45.463-17.394s-12.949,34.465-41.954,60.9a415.237,415.237,0,0,1,3.269,47.906,407.238,407.238,0,0,1-37.525-19.365c-3.611,2.108-24.179,16.1-58.916,23.29,0,0,14.707-22.979,26.862-45.428a191.325,191.325,0,0,1-43.406-42.1s37.309,4.708,65.886.173Z" transform="translate(229.943 152.297)" fill="#fff" fill-rule="evenodd"/>
      <path id="Path_4" data-name="Path 4" d="M411.758,399.971a750.167,750.167,0,0,0,51.127,56.74,474.1,474.1,0,0,1-76.223-18.043c-17.091,27.393-35.732,59.238-35.732,59.238s-10.428-34.552-12.19-73.76c0,0-21.135-7.395-60.084-22.735,0,0,26.865-16.678,59.38-25.772-1.9-3.749,3.084-50.368,9.315-69.426,0,0,18.955,30.736,34.394,53.334,0,0,30.225-10.255,76.585-21.162,0,0-25.371,32.2-46.572,61.587Z" transform="translate(92.551 89.178)" fill="#fff" fill-rule="evenodd"/>
      <path id="Path_5" data-name="Path 5" d="M273.32,476.306c-2.549-4.811-4.929-9.676-7.135-14.676.441-16.67,1.935-38.139,6.2-54.8,0,0-12.229-8.477-24.86-19.506-.138-1.916-.311-3.847-.417-5.786,7.265-2.7,22.673-8.15,36.129-11.266,1.542-3.922,9.916-30.917,26.114-49.55a402.22,402.22,0,0,0,5.5,42.792,243.765,243.765,0,0,1,56.363-4.661s-28.541,22.48-46.517,45.325c6.522,26.327,19.636,51.6,19.636,51.6-19.6-11.092-40.338-25.784-40.338-25.784-7.277,8.65-21.913,32-30.669,46.313Z" transform="translate(0 131.736)" fill="#fff" fill-rule="evenodd"/>
      <path id="Path_6" data-name="Path 6" d="M390.175,495.466c-3.162-.547-6.349-1.251-9.464-1.951-10.7-11.47-27.015-30.205-39.48-49.892,0,0-45.97-3.717-78.37-17.893a229.5,229.5,0,0,0,56.213-20.2,298.3,298.3,0,0,1-20.958-50.152s28.1,22.7,48.917,35.991c0,0,26.456-15.223,50.238-36.42,0,0-6.03,29.3-9.37,62.751,23.566,13.516,46.47,25.65,46.47,25.65a308.729,308.729,0,0,1-47.6,2.757c-.94,18.578,1.562,38.111,3.4,49.361Z" transform="translate(46.211 232.137)" fill="#fff" fill-rule="evenodd"/>
      <path id="Path_7" data-name="Path 7" d="M467.42,401.172s-31.708,8.374-62.652,9.539c0,0-.236-21.111-1.758-43.984a449.956,449.956,0,0,1-37.9,45.746c-25.316-.362-53.5-3.682-53.5-3.682,15.632,15.946,29.8,28.663,29.8,28.663a331.045,331.045,0,0,1-36.707,27.05c2.506.031,5.051.055,7.572.02a230.166,230.166,0,0,0,155.14-63.352Z" transform="translate(168.971 266.694)" fill="#fff" fill-rule="evenodd"/>
      <path id="Path_8" data-name="Path 8" d="M247.816,429.656s16.942-21.127,36.715-38.285c0,0,6.612,12.21,22.739,28.474,0,0,.118-19.876,2.427-51.06,18.066-15.966,42.961-32.494,42.961-32.494a309.694,309.694,0,0,0-36.054-.307c4.787-23.664,15.608-49.054,15.608-49.054a230.873,230.873,0,0,0-84.4,142.726Z" transform="translate(2.08 32.611)" fill="#fff" fill-rule="evenodd"/>
    </g>
  </g>
</svg>
